<svg width="27" height="32" viewBox="0 0 27 32" fill="none" xmlns="http://www.w3.org/2000/svg">
<path d="M25.8995 6.1005C26.6805 5.31945 26.6872 4.04157 25.8149 3.36399C23.8587 1.84455 21.5686 0.794212 19.1214 0.307435C16.0177 -0.309928 12.8007 0.00692582 9.87706 1.21793C6.95345 2.42893 4.45459 4.47969 2.69648 7.11088C0.938383 9.74207 -4.77826e-07 12.8355 0 16C4.77827e-07 19.1645 0.938385 22.2579 2.69649 24.8891C4.45459 27.5203 6.95345 29.5711 9.87707 30.7821C12.8007 31.9931 16.0178 32.3099 19.1214 31.6926C21.5686 31.2058 23.8587 30.1554 25.8149 28.636C26.6872 27.9584 26.6805 26.6805 25.8995 25.8995L23.0711 23.0711C22.29 22.29 21.0314 22.317 20.0814 22.8805C19.3061 23.3405 18.4543 23.6685 17.5607 23.8463C16.0089 24.155 14.4003 23.9965 12.9385 23.391C11.4767 22.7855 10.2273 21.7602 9.34824 20.4446C8.46919 19.129 8 17.5823 8 16C8 14.4178 8.46919 12.871 9.34824 11.5554C10.2273 10.2398 11.4767 9.21447 12.9385 8.60896C14.4003 8.00346 16.0089 7.84504 17.5607 8.15372C18.4543 8.33147 19.3061 8.65952 20.0814 9.11946C21.0314 9.68298 22.29 9.70998 23.0711 8.92893L25.8995 6.1005Z" fill="#5BBA45"/>
</svg>
